<?xml version="1.0" encoding="utf-8"?>
<!-- Generator: Adobe Illustrator 26.0.2, SVG Export Plug-In . SVG Version: 6.00 Build 0)  -->
<svg version="1.1" id="Layer_1" xmlns="http://www.w3.org/2000/svg" xmlns:xlink="http://www.w3.org/1999/xlink" x="0px" y="0px"
	 viewBox="0 0 841.89 327.28" style="enable-background:new 0 0 841.89 327.28;" xml:space="preserve">
<style type="text/css">
	.st0{fill:#063F5C;}
	.st1{fill:#F27721;}
</style>
<g>
	<path class="st0" d="M369.05,158.25v4.63c-0.19,11.84-3.15,20.17-9.99,28.5c-9.07,11.1-22.02,17.39-36.27,17.39
		c-25.54,0-46.26-20.91-46.26-46.82c0-25.72,20.73-46.08,47.19-46.08c3.52,0,5.55,0.18,9.62,1.11v30.9
		c-4.44-1.48-6.48-2.03-9.99-2.03c-9.44,0-16.84,7.03-16.84,16.28c0,9.25,7.22,16.66,16.47,16.66c5.92,0,11.1-3.15,13.69-7.96
		c1.67-3.33,2.22-6.11,2.22-12.4v-4.07V83.49h30.16V158.25z"/>
	<path class="st0" d="M463.06,201c-9.62,5.37-18.69,7.77-29.79,7.77c-29.24,0-51.26-20.17-51.26-46.82
		c0-25.72,20.73-46.08,46.63-46.08c16.47,0,30.53,7.77,39.6,22.02l-37.57,40.71c1.66,0.37,2.04,0.37,3.89,0.37
		c6.85,0,13.51-2.41,21.28-7.4L463.06,201z M428.27,145.3c-8.88,0-16.28,7.4-16.28,16.47c0,2.96,0.56,5,2.22,8.14l21.1-22.95
		C432.71,145.67,430.67,145.3,428.27,145.3"/>
	<path class="st0" d="M529.3,206.92h-6.11h-6.85c-15.55-0.37-25.91-6.66-32.38-19.25c-3.52-7.03-5.18-16.47-5.18-30.35v-4.44v-69.4
		h32.94v72.54v4.07c0,9.07,0.74,12.03,3.52,14.99c2.59,2.41,6.29,3.52,12.03,3.52h2.04V206.92z"/>
	<path class="st1" d="M557.24,81.82c9.07,0,16.28,7.4,16.28,16.47c0,8.88-7.22,16.1-16.1,16.1c-8.88,0-16.28-7.22-16.28-15.73
		C541.14,89.23,548.17,81.82,557.24,81.82"/>
	<rect x="542.25" y="117.36" class="st0" width="30.16" height="89.57"/>
	<path class="st0" d="M585.58,206.92v-41.27v-3.15c0-13.69,1.66-20.73,6.29-28.31c7.22-11.47,19.8-18.32,34.05-18.32
		c16.29,0,30.72,8.88,37.01,22.95c3.33,7.03,4.07,11.47,4.07,23.69v3.15v41.27h-30.16v-44.6v-2.96c-0.19-9.25-3.7-13.69-10.55-13.69
		c-7.03,0-10.55,4.44-10.55,13.69v2.96v44.6H585.58z"/>
	<path class="st0" d="M679.98,83.49h30.16v54.96c12.95-0.37,19.06-7.22,19.25-21.1h30.16c-0.55,13.32-6.11,22.95-17.95,30.16
		c13.88,8.7,19.8,20.17,19.8,38.86v3.89v16.66h-30.16v-12.77v-3.52v-3.89c0-7.03-1.11-11.1-4.44-15.55
		c-4.26-5.74-9.25-8.14-16.66-8.33v44.04h-30.16V83.49z"/>
	<g>
		<path class="st0" d="M290.76,223.32h3.77v29.63h-3.77V223.32z"/>
		<path class="st0" d="M343.26,223.32h3.89l10.72,18.63l3.2,6.13h0.18c-0.19-2.99-0.48-6.33-0.48-9.43v-15.33h3.58v29.63h-3.89
			l-10.72-18.64l-3.2-6.12h-0.18c0.19,3,0.48,6.16,0.48,9.25v15.5h-3.58V223.32z"/>
		<path class="st0" d="M413.08,223.32h17.09v3.19h-13.32v9.99h11.29v3.19h-11.29v13.25h-3.77V223.32z"/>
		<path class="st0" d="M473.83,238.02c0-9.49,5.22-15.25,12.66-15.25c7.44,0,12.66,5.78,12.66,15.25c0,9.49-5.22,15.46-12.66,15.46
			C479.05,253.49,473.83,247.51,473.83,238.02z M495.26,238.02c0-7.38-3.48-11.93-8.77-11.93c-5.29,0-8.77,4.55-8.77,11.93
			c0,7.38,3.48,12.15,8.77,12.15C491.78,250.17,495.26,245.4,495.26,238.02z"/>
		<path class="st0" d="M551.23,226.51h-8.96v-3.19h21.7v3.19H555v26.44h-3.77V226.51z"/>
		<path class="st0" d="M609.88,223.32h17.08v3.19h-13.31v9.28h11.22v3.19h-11.22v10.77h13.76v3.19h-17.53V223.32z"/>
		<path class="st0" d="M672.57,238.16c0-9.55,5.63-15.38,13.15-15.38c3.6,0,6.41,1.75,8.15,3.65l-2.07,2.45
			c-1.56-1.66-3.52-2.79-6.02-2.79c-5.6,0-9.32,4.59-9.32,11.97c0,7.45,3.55,12.11,9.17,12.11c2.83,0,4.98-1.23,6.87-3.33l2.07,2.36
			c-2.34,2.72-5.24,4.28-9.09,4.28C678.1,253.49,672.57,247.78,672.57,238.16z"/>
		<path class="st0" d="M740.68,223.32h3.77v12.41h13.78v-12.41H762v29.63h-3.77v-13.93h-13.78v13.93h-3.77V223.32z"/>
	</g>
	<g>
		<path class="st1" d="M263.58,163.28c-0.2-13.22-10.94-23.85-24.21-23.85c-13.25,0-24.08,10.83-24.08,24.22
			c0,13.25,10.83,24.08,24.08,24.08c13.26,0,24-10.62,24.21-23.69c0-0.13,0.01-0.27,0.01-0.4
			C263.58,163.52,263.58,163.4,263.58,163.28z"/>
		<path class="st1" d="M239.36,212.96c-27.22,0-49.3-22.09-49.3-49.3c0-27.36,22.09-49.45,49.3-49.45c3.6,0,7.11,0.39,10.49,1.12
			C233.66,89.2,204.73,71.8,171.73,71.8c-50.72,0-91.84,41.12-91.84,91.84s41.12,91.84,91.84,91.84c33.06,0,62.03-17.47,78.2-43.67
			C246.53,212.56,242.99,212.96,239.36,212.96z M184.36,211.53c-2.8,0.72-4.81,1.1-7.06,1.28c-3.68,0.41-7.43,0.33-11.3-0.23
			c-10.85-1.2-19.75-5.34-27.66-13.02c-9.83-9.4-15.25-22.23-15.25-36.05c0-27.36,22.09-49.3,49.59-49.3
			c4.27,0,6.98,0.43,11.68,1.57c0,0,7.14,1.75,12.87,4.11c0,0-11.9,7.97-14.14,21.19c-4.56-1.43-6.28-1.51-9.99-1.51
			c-1.74,0-3.42,0.16-5.05,0.46c-3.33,0.98-5.66,2.06-8.23,3.65c-5.08,3.14-8.61,7.6-10.4,12.58c-0.72,2.31-1.11,4.79-1.11,7.39
			c0,13.68,10.83,24.08,25.08,24.08c0.29,0,0.57-0.01,0.85-0.01c2.71-0.3,5.43-1.05,8.07-2.3c2.17,13.09,12.69,21.39,12.79,21.47
			C191.5,208.91,187.94,210.5,184.36,211.53z"/>
	</g>
</g>
</svg>
